<?xml version="1.0" encoding="utf-8"?>
<svg xmlns="http://www.w3.org/2000/svg" viewBox="550.1257 -11.75 157.3194 65.5" width="157.319px" height="65.5px">
  <mask id="d549c108-62e1-4086-8a7b-01bcea938ee7">
    <g fill="white">
      <rect data-gra="graph-name" x="0" y="0" width="145.77000427246094" height="65.5" transform="skewX(10)"/>
    </g>
    <g data-gra="path-name" fill-rule="" class="tp-name" transform="translate(15.774708618202228,10)" fill="black">
      <g transform="scale(1)">
        <g>
          <path d="M47.06 0L40.3 0 35.49-11.05 11.51-11.05 6.76 0 0.2 0 20.41-45.5 26.91-45.5 47.06 0ZM23.46-38.8L13.97-16.71 33.09-16.71 23.46-38.8ZM53.69 0L53.69-45.5 83.33-45.5 83.27-39.84 59.93-39.84 59.93-24.89 80.93-24.89 80.93-19.24 59.93-19.24 59.93 0 53.69 0ZM108.16-45.5Q116.68-45.5 121.32-41.47 125.97-37.44 125.97-30.16L125.97-30.16Q125.97-22.55 121.29-18.36 116.61-14.17 108.16-14.17L108.16-14.17 96.85-14.17 96.85 0 90.61 0 90.61-45.5 108.16-45.5ZM107.9-19.82Q113.75-19.82 116.87-22.39 119.99-24.96 119.99-29.96L119.99-29.96Q119.99-34.84 116.87-37.34 113.75-39.84 107.9-39.84L107.9-39.84 96.85-39.78 96.85-19.82 107.9-19.82Z" transform="translate(-0.20000000298023224, 45.5)"/>
        </g>
      </g>
    </g>
  </mask>
  <g data-v-0dd9719b="" fill="#f7db54" class="pmspacesvg" transform="matrix(1, 0, 0, 1, 550.125732421875, -11.749981880187988)">
    <g>
      <g mask="url(#d549c108-62e1-4086-8a7b-01bcea938ee7)">
        <g>
          <rect data-gra="graph-name" fill="#f7db54" x="0" y="0" width="145.77000427246094" height="65.5" transform="skewX(10)"/>
        </g>
        <g data-gra="path-name" fill-rule="" class="tp-name" transform="translate(15.774708618202228,10)">
          <g transform="scale(1)">
            <g>
              <path d="M47.06 0L40.3 0 35.49-11.05 11.51-11.05 6.76 0 0.2 0 20.41-45.5 26.91-45.5 47.06 0ZM23.46-38.8L13.97-16.71 33.09-16.71 23.46-38.8ZM53.69 0L53.69-45.5 83.33-45.5 83.27-39.84 59.93-39.84 59.93-24.89 80.93-24.89 80.93-19.24 59.93-19.24 59.93 0 53.69 0ZM108.16-45.5Q116.68-45.5 121.32-41.47 125.97-37.44 125.97-30.16L125.97-30.16Q125.97-22.55 121.29-18.36 116.61-14.17 108.16-14.17L108.16-14.17 96.85-14.17 96.85 0 90.61 0 90.61-45.5 108.16-45.5ZM107.9-19.82Q113.75-19.82 116.87-22.39 119.99-24.96 119.99-29.96L119.99-29.96Q119.99-34.84 116.87-37.34 113.75-39.84 107.9-39.84L107.9-39.84 96.85-39.78 96.85-19.82 107.9-19.82Z" transform="translate(-0.20000000298023224, 45.5)"/>
            </g>
          </g>
        </g>
      </g>
    </g>
  </g>
</svg>